<?xml version="1.0" encoding="utf-8"?>
<!-- Generator: Adobe Illustrator 24.3.0, SVG Export Plug-In . SVG Version: 6.00 Build 0)  -->
<svg version="1.1" id="Layer_1" xmlns="http://www.w3.org/2000/svg" xmlns:xlink="http://www.w3.org/1999/xlink" x="0px" y="0px"
	 viewBox="0 0 722.2 503.1" style="enable-background:new 0 0 722.2 503.1;" xml:space="preserve">
<style type="text/css">
	.st0{fill:none;}
	.st1{fill:#5D87A1;}
	.st2{fill:#F8981D;}
</style>
<path class="st0" d="M0.5,0.5h721.4v500H0.5V0.5z"/>
<path class="st1" d="M221.3,404.4h-19.5c-0.7-33-2.6-64-5.7-93h-0.2l-29.7,93h-14.9l-29.6-93h-0.2c-2.2,27.9-3.6,58.9-4.1,93H99.6
	c1.1-41.5,4-80.4,8.6-116.7h24.2l28.2,85.7h0.2l28.3-85.7h23.2C217.4,330.2,220.4,369.1,221.3,404.4 M306,318.3
	c-8,43.2-18.4,74.5-31.5,94.1c-10.1,15.1-21.3,22.6-33.4,22.6c-3.2,0-7.2-1-11.9-2.9v-10.4c2.3,0.3,5,0.5,8.1,0.5
	c5.7,0,10.2-1.6,13.7-4.7c4.1-3.8,6.2-8.1,6.2-12.8c0-3.2-1.6-9.9-4.8-19.9L231,318.3h19.2l15.4,49.8c3.5,11.3,4.9,19.2,4.3,23.7
	c8.4-22.5,14.3-47,17.6-73.5L306,318.3L306,318.3L306,318.3z"/>
<path class="st2" d="M565.9,404.4h-55.5V287.7h18.7V390h36.8V404.4z M495.9,407.2l-21.5-10.6c1.9-1.6,3.7-3.3,5.4-5.2
	c9.1-10.7,13.7-26.5,13.7-47.5c0-38.6-15.1-57.9-45.5-57.9c-14.9,0-26.5,4.9-34.7,14.7c-9.1,10.7-13.7,26.5-13.7,47.4
	c0,20.5,4,35.6,12.1,45.1c7.4,8.6,18.5,13,33.4,13c5.5,0,10.6-0.7,15.3-2l27.9,16.3L495.9,407.2z M426.5,381
	c-4.7-7.6-7.1-19.8-7.1-36.6c0-29.4,8.9-44.1,26.8-44.1c9.3,0,16.2,3.5,20.6,10.5c4.7,7.6,7.1,19.7,7.1,36.3
	c0,29.6-8.9,44.4-26.8,44.4C437.7,391.6,430.8,388.1,426.5,381 M391.5,372c0,9.9-3.6,18-10.9,24.4c-7.3,6.3-17,9.5-29.2,9.5
	c-11.4,0-22.5-3.6-33.2-10.9l5-10c9.2,4.6,17.6,6.9,25.1,6.9c7,0,12.5-1.6,16.5-4.6c4-3.1,6.4-7.5,6.4-13c0-6.9-4.8-12.9-13.7-17.8
	c-8.2-4.5-24.5-13.9-24.5-13.9c-8.9-6.5-13.3-13.4-13.3-24.8c0-9.5,3.3-17.1,9.9-22.9c6.6-5.8,15.2-8.7,25.7-8.7
	c10.8,0,20.7,2.9,29.5,8.6l-4.5,10c-7.6-3.2-15.1-4.8-22.5-4.8c-6,0-10.6,1.4-13.8,4.3c-3.2,2.9-5.2,6.6-5.2,11.1
	c0,6.9,4.9,12.9,14,18c8.3,4.5,25.1,14.1,25.1,14.1C387,353.8,391.5,360.7,391.5,372"/>
<path class="st1" d="M589.4,248.6c-11.3-0.3-20,0.8-27.4,4c-2.1,0.8-5.5,0.8-5.8,3.5c1.1,1.1,1.3,3,2.3,4.5c1.7,2.8,4.6,6.6,7.3,8.6
	c3,2.3,5.9,4.5,9,6.5c5.5,3.4,11.7,5.4,17,8.7c3.1,2,6.2,4.5,9.3,6.6c1.5,1.1,2.5,3,4.5,3.7v-0.4c-1-1.3-1.3-3.1-2.3-4.5l-4.2-4.1
	c-4.1-5.5-9.2-10.3-14.7-14.2c-4.5-3.1-14.4-7.3-16.2-12.5l-0.3-0.3c3.1-0.3,6.8-1.4,9.7-2.3c4.8-1.3,9.2-1,14.1-2.2
	c2.3-0.6,4.5-1.3,6.8-2v-1.3c-2.6-2.5-4.4-5.9-7.1-8.3c-7.2-6.2-15.1-12.3-23.3-17.3c-4.4-2.8-10-4.6-14.7-7
	c-1.7-0.8-4.5-1.3-5.5-2.7c-2.5-3.1-4-7.2-5.8-10.9c-4.1-7.7-8-16.3-11.6-24.5c-2.5-5.5-4.1-11-7.2-16.1
	c-14.5-24-30.3-38.5-54.6-52.7c-5.2-3-11.4-4.2-18-5.8l-10.6-0.6c-2.3-1-4.5-3.7-6.5-4.9c-8-5.1-28.8-16.1-34.7-1.6
	c-3.8,9.2,5.6,18.2,8.9,22.8c2.4,3.2,5.5,6.9,7.2,10.6c1,2.4,1.3,4.9,2.3,7.5c2.3,6.2,4.4,13.1,7.3,18.9c1.5,3,3.2,6.1,5.2,8.7
	c1.1,1.6,3.1,2.3,3.5,4.8c-2,2.8-2.1,7-3.2,10.6c-5.1,15.9-3.1,35.7,4.1,47.4c2.2,3.5,7.6,11.3,14.8,8.3c6.4-2.5,4.9-10.6,6.8-17.6
	c0.4-1.7,0.1-2.8,1-3.9v0.3c2,3.9,4,7.7,5.8,11.7c4.4,6.9,12,14.1,18.3,18.9c3.4,2.6,6.1,6.9,10.3,8.5v-0.4h-0.3
	c-0.9-1.3-2.1-1.8-3.2-2.8c-2.5-2.5-5.4-5.6-7.3-8.5c-5.9-7.9-11.1-16.6-15.8-25.7c-2.3-4.4-4.2-9.2-6.1-13.5
	c-0.9-1.7-0.9-4.2-2.3-5.1c-2.1,3.1-5.2,5.8-6.8,9.6c-2.7,6.1-3,13.5-4,21.3l-0.6,0.3c-4.5-1.1-6.1-5.8-7.8-9.7
	c-4.2-10-4.9-26.1-1.3-37.6c1-3,5.2-12.3,3.5-15.1c-0.8-2.7-3.7-4.2-5.2-6.4c-1.8-2.7-3.8-6.1-5.1-9c-3.4-7.9-5.1-16.6-8.7-24.5
	c-1.7-3.7-4.7-7.5-7-10.9c-2.7-3.8-5.6-6.5-7.8-11c-0.7-1.6-1.7-4.1-0.6-5.8c0.3-1.1,0.8-1.6,2-1.8c1.8-1.5,7,0.4,8.9,1.3
	c5.2,2.1,9.6,4.1,14,7c2,1.4,4.1,4.1,6.6,4.8h3c4.5,1,9.6,0.3,13.8,1.5c7.5,2.4,14.2,5.9,20.3,9.7c18.5,11.7,33.7,28.3,44,48.2
	c1.7,3.2,2.4,6.2,3.9,9.6c3,6.9,6.6,14,9.6,20.7c3,6.6,5.8,13.4,10,18.9c2.1,3,10.6,4.5,14.4,6.1c2.8,1.3,7.2,2.4,9.7,3.9
	c4.8,3,9.6,6.3,14.1,9.6C581.9,242.2,589,245.8,589.4,248.6 M445.6,126.1c-1.9,0-3.9,0.2-5.8,0.7v0.3h0.3c1.1,2.3,3.1,3.8,4.5,5.8
	c1.1,2.3,2.1,4.5,3.2,6.8l0.3-0.3c2-1.4,3-3.7,3-7c-0.9-1-1-2-1.7-3C448.5,127.9,446.7,127.2,445.6,126.1"/>
<path class="st2" d="M602.8,404.3h2.9V390h-4.4l-3.6,9.8l-3.9-9.8h-4.2v14.3h2.8v-10.9h0.2l4.1,10.9h2.1l4.1-10.9L602.8,404.3
	L602.8,404.3z M579.3,404.3h3.1v-11.9h4V390h-11.4v2.4h4.2L579.3,404.3L579.3,404.3z"/>
</svg>
