<?xml version="1.0" encoding="utf-8"?>
<!-- Generator: Adobe Illustrator 24.3.0, SVG Export Plug-In . SVG Version: 6.00 Build 0)  -->
<svg version="1.1"
	 id="svg3430" xmlns:cc="http://creativecommons.org/ns#" xmlns:dc="http://purl.org/dc/elements/1.1/" xmlns:rdf="http://www.w3.org/1999/02/22-rdf-syntax-ns#" xmlns:svg="http://www.w3.org/2000/svg"
	 xmlns="http://www.w3.org/2000/svg" xmlns:xlink="http://www.w3.org/1999/xlink" x="0px" y="0px" viewBox="0 0 729.2 415.6"
	 style="enable-background:new 0 0 729.2 415.6;" xml:space="preserve">
<style type="text/css">
	.st0{clip-path:url(#SVGID_2_);}
	.st1{fill:url(#path3462_1_);}
	.st2{clip-path:url(#SVGID_4_);}
	.st3{fill:#777BB3;}
	.st4{clip-path:url(#SVGID_6_);}
	.st5{fill:#FFFFFF;}
</style>
<g id="g3438" transform="matrix(1.25,0,0,-1.25,-4.4,394.29875)">
	<g id="g3440">
		<g>
			<defs>
				<path id="SVGID_1_" d="M17.9,148.4C17.9,68.1,141.7,3,294.4,3l0,0c152.7,0,276.5,65.1,276.5,145.4l0,0
					c0,80.3-123.8,145.4-276.5,145.4l0,0C141.7,293.8,17.9,228.7,17.9,148.4"/>
			</defs>
			<clipPath id="SVGID_2_">
				<use xlink:href="#SVGID_1_"  style="overflow:visible;"/>
			</clipPath>
			<g id="g3442" class="st0">
				<g id="g3448">
					<g id="g3450">
						
							<radialGradient id="path3462_1_" cx="54.6213" cy="8.209" r="1" gradientTransform="matrix(453.8224 0 0 -453.8224 -24604.4395 3968.1448)" gradientUnits="userSpaceOnUse">
							<stop  offset="0" style="stop-color:#AEB2D5"/>
							<stop  offset="0.3" style="stop-color:#AEB2D5"/>
							<stop  offset="0.75" style="stop-color:#484C89"/>
							<stop  offset="1" style="stop-color:#484C89"/>
						</radialGradient>
						<path id="path3462" class="st1" d="M17.9,148.4C17.9,68.1,141.7,3,294.4,3l0,0c152.7,0,276.5,65.1,276.5,145.4l0,0
							c0,80.3-123.8,145.4-276.5,145.4l0,0C141.7,293.8,17.9,228.7,17.9,148.4"/>
					</g>
				</g>
			</g>
		</g>
	</g>
	<g id="g3464">
		<g>
			<defs>
				<rect id="SVGID_3_" x="-65.6" y="-54.1" width="720" height="405"/>
			</defs>
			<clipPath id="SVGID_4_">
				<use xlink:href="#SVGID_3_"  style="overflow:visible;"/>
			</clipPath>
			<g id="g3466" class="st2">
				<g id="g3472" transform="translate(288,27.3594)">
					<path id="path3474" class="st3" d="M6.4-13.6c146.7,0,265.7,60.3,265.7,134.6c0,74.4-119,134.6-265.7,134.6
						S-259.3,195.4-259.3,121C-259.3,46.7-140.3-13.6,6.4-13.6"/>
				</g>
			</g>
		</g>
	</g>
	<g id="g3476">
		<g>
			<defs>
				<rect id="SVGID_5_" x="-65.6" y="-54.1" width="720" height="405"/>
			</defs>
			<clipPath id="SVGID_6_">
				<use xlink:href="#SVGID_5_"  style="overflow:visible;"/>
			</clipPath>
			<g id="g3478" class="st4">
				<g id="g3484" transform="translate(161.7344,145.3066)">
					<path id="path3486" d="M6.4-13.6c12.1,0,21.1,2.2,26.8,6.6c5.6,4.3,9.5,11.9,11.6,22.4c1.9,9.8,1.2,16.7-2.2,20.3
						c-3.4,3.8-10.8,5.7-21.9,5.7H1.4l-10.7-55H6.4z M-56.7-81.3c-0.9,0-1.7,0.4-2.3,1.1c-0.6,0.7-0.8,1.6-0.6,2.5L-31.3,68
						c0.3,1.4,1.5,2.4,2.9,2.4h61.1c19.2,0,33.5-5.2,42.4-15.5c9-10.3,11.8-24.8,8.3-42.9C82,4.6,79.5-2.3,76.1-8.4
						c-3.4-6.2-8-11.9-13.5-16.9C56-31.5,48.5-36,40.4-38.7c-8-2.6-18.3-3.9-30.5-3.9h-24.7L-22-78.9c-0.3-1.4-1.5-2.4-2.9-2.4
						H-56.7z"/>
				</g>
				<g id="g3488" transform="translate(159.2236,197.3071)">
					<path id="path3490" class="st5" d="M6.4-13.6h16.8c13.4,0,18.1-2.9,19.7-4.7c2.6-2.9,3.1-9.1,1.4-17.8
						c-1.9-9.8-5.4-16.7-10.5-20.5c-5.2-4-13.6-6-24.9-6h-12L6.4-13.6z M35.2,21.4h-61.1c-2.9,0-5.3-2-5.9-4.9L-60-129.2
						c-0.3-1.8,0.1-3.6,1.3-5c1.1-1.4,2.8-2.2,4.6-2.2h31.7c2.9,0,5.3,2,5.9,4.9l6.6,33.9h22.2c12.6,0,23.2,1.4,31.5,4.1
						c8.5,2.8,16.4,7.5,23.4,14c5.8,5.3,10.5,11.2,14.1,17.7c3.6,6.4,6.2,13.6,7.7,21.3c3.7,19.1,0.7,34.4-9,45.5
						C70.4,15.8,55.3,21.4,35.2,21.4 M-10.4-68.6H8.9c12.8,0,22.3,2.4,28.6,7.2c6.3,4.8,10.5,12.9,12.7,24.2
						c2.1,10.8,1.1,18.5-2.9,22.9c-4,4.5-12.1,6.7-24.1,6.7H1.5L-10.4-68.6 M35.2,15.4c18.4,0,31.8-4.8,40.2-14.5
						c8.4-9.6,11-23.1,7.6-40.4c-1.4-7.1-3.7-13.6-7-19.5c-3.3-5.9-7.6-11.3-12.9-16.2c-6.3-5.9-13.4-10.2-21.1-12.7
						c-7.8-2.5-17.6-3.8-29.6-3.8h-27.2l-7.5-38.8h-31.8l28.3,145.8H35.2"/>
				</g>
				<g id="g3492" transform="translate(311.583,116.3066)">
					<path id="path3494" d="M6.4-13.6c-0.9,0-1.7,0.4-2.3,1.1c-0.6,0.7-0.8,1.6-0.6,2.5L16,54.5c1.2,6.1,0.9,10.5-0.8,12.4
						c-1.1,1.1-4.2,3-13.6,3h-22.7l-15.8-81.1c-0.3-1.4-1.5-2.4-2.9-2.4h-31.5c-0.9,0-1.7,0.4-2.3,1.1c-0.6,0.7-0.8,1.6-0.6,2.5
						L-46,135.7c0.3,1.4,1.5,2.4,2.9,2.4h31.5c0.9,0,1.7-0.4,2.3-1.1c0.6-0.7,0.8-1.6,0.6-2.5l-6.8-35.2H9c18.6,0,31.2-3.3,38.6-10
						c7.5-6.9,9.8-17.9,6.9-32.7L41.3-11.2c-0.3-1.4-1.5-2.4-2.9-2.4H6.4z"/>
				</g>
				<g id="g3496" transform="translate(293.6611,271.0571)">
					<path id="path3498" class="st5" d="M6.4-13.6h-31.5c-2.9,0-5.3-2-5.9-4.9l-28.3-145.8c-0.3-1.8,0.1-3.6,1.3-5s2.8-2.2,4.6-2.2
						h31.5c2.9,0,5.3,2,5.9,4.9l15.3,78.6h20.2c9.4,0,11.3-2,11.4-2.1c0.6-0.6,1.3-3.4,0.1-9.8l-12.5-64.5c-0.3-1.8,0.1-3.6,1.3-5
						c1.1-1.4,2.8-2.2,4.6-2.2h32c2.9,0,5.3,2,5.9,4.9l13.2,67.8c3.1,15.9,0.4,27.9-7.9,35.5c-7.9,7.3-21.2,10.8-40.6,10.8H6.1
						l6.1,31.6c0.3,1.8-0.1,3.6-1.3,5C9.9-14.4,8.2-13.6,6.4-13.6 M6.4-19.6l-7.5-38.8h28.1c17.7,0,29.8-3.1,36.5-9.2
						c6.7-6.2,8.7-16.1,6-29.9l-13.2-67.8h-32l12.5,64.5c1.4,7.3,0.9,12.3-1.6,15c-2.5,2.7-7.7,4-15.8,4H-5.7l-16.2-83.5h-31.5
						l28.3,145.8H6.4"/>
				</g>
				<g id="g3500" transform="translate(409.5498,145.3066)">
					<path id="path3502" d="M6.4-13.6c12.1,0,21.1,2.2,26.8,6.6c5.6,4.3,9.5,11.9,11.6,22.4c1.9,9.8,1.2,16.7-2.2,20.3
						c-3.4,3.8-10.8,5.7-21.9,5.7H1.4l-10.7-55H6.4z M-56.7-81.3c-0.9,0-1.7,0.4-2.3,1.1c-0.6,0.7-0.8,1.6-0.6,2.5L-31.3,68
						c0.3,1.4,1.5,2.4,2.9,2.4h61.1c19.2,0,33.5-5.2,42.4-15.5c9-10.3,11.8-24.8,8.3-42.9C82,4.6,79.5-2.3,76.1-8.4
						c-3.4-6.2-8-11.9-13.5-16.9C56-31.5,48.5-36,40.4-38.7c-8-2.6-18.3-3.9-30.5-3.9h-24.7L-22-78.9c-0.3-1.4-1.5-2.4-2.9-2.4
						H-56.7z"/>
				</g>
				<g id="g3504" transform="translate(407.0391,197.3071)">
					<path id="path3506" class="st5" d="M6.4-13.6h16.8c13.4,0,18.1-2.9,19.7-4.7c2.6-2.9,3.1-9.1,1.4-17.8
						c-1.9-9.8-5.4-16.7-10.5-20.5c-5.2-4-13.6-6-24.9-6h-12L6.4-13.6z M35.2,21.4h-61.1c-2.9,0-5.3-2-5.9-4.9L-60-129.2
						c-0.3-1.8,0.1-3.6,1.3-5c1.1-1.4,2.8-2.2,4.6-2.2h31.7c2.9,0,5.3,2,5.9,4.9l6.6,33.9h22.2c12.6,0,23.2,1.4,31.5,4.1
						c8.5,2.8,16.4,7.5,23.4,14c5.8,5.3,10.5,11.2,14.1,17.7c3.6,6.4,6.2,13.6,7.7,21.3c3.7,19.1,0.7,34.4-9,45.5
						C70.4,15.8,55.3,21.4,35.2,21.4 M-10.4-68.6H8.9c12.8,0,22.3,2.4,28.6,7.2c6.3,4.8,10.5,12.9,12.7,24.2
						c2.1,10.8,1.1,18.5-2.9,22.9c-4,4.5-12.1,6.7-24.1,6.7H1.5L-10.4-68.6 M35.2,15.4c18.4,0,31.8-4.8,40.2-14.5s11-23.1,7.6-40.4
						c-1.4-7.1-3.7-13.6-7-19.5c-3.3-5.9-7.6-11.3-12.9-16.2c-6.3-5.9-13.4-10.2-21.1-12.7c-7.8-2.5-17.6-3.8-29.6-3.8h-27.2
						l-7.5-38.8h-31.8l28.3,145.8H35.2"/>
				</g>
			</g>
		</g>
	</g>
</g>
</svg>
