<?xml version="1.0" encoding="utf-8"?>
<!-- Generator: Adobe Illustrator 24.3.0, SVG Export Plug-In . SVG Version: 6.00 Build 0)  -->
<svg version="1.1" id="Layer_1" xmlns="http://www.w3.org/2000/svg" xmlns:xlink="http://www.w3.org/1999/xlink" x="0px" y="0px"
	 viewBox="0 0 464.3 480.6" style="enable-background:new 0 0 464.3 480.6;" xml:space="preserve">
<style type="text/css">
	.st0{stroke:#000000;stroke-width:37.3953;}
	.st1{fill:#336791;}
	.st2{fill:none;stroke:#FFFFFF;stroke-width:12.4651;stroke-linecap:round;stroke-linejoin:round;}
	.st3{fill:none;stroke:#FFFFFF;stroke-width:12.4651;stroke-linecap:round;stroke-linejoin:bevel;}
	.st4{fill:#FFFFFF;stroke:#FFFFFF;stroke-width:4.155;}
	.st5{fill:#FFFFFF;stroke:#FFFFFF;stroke-width:2.0775;}
	.st6{fill:none;stroke:#FFFFFF;stroke-width:3;stroke-linecap:round;stroke-linejoin:round;}
</style>
<g id="orginal">
</g>
<g id="Layer_x0020_3">
	<path class="st0" d="M348.2,349.6c3-25.4,2.1-29.1,21-25l4.8,0.4c14.5,0.7,33.6-2.3,44.7-7.5c24.1-11.2,38.3-29.8,14.6-24.9
		c-54.1,11.2-57.8-7.2-57.8-7.2c57.1-84.8,81-192.4,60.4-218.7c-56.2-71.8-153.5-37.9-155.2-37l-0.5,0.1
		c-10.7-2.2-22.7-3.5-36.1-3.8c-24.5-0.4-43.1,6.4-57.2,17.1c0,0-173.6-71.5-165.5,90c1.7,34.4,49.2,259.9,105.9,191.8
		c20.7-24.9,40.7-46,40.7-46c9.9,6.6,21.8,10,34.3,8.8l1-0.8c-0.3,3.1-0.2,6.1,0.4,9.7c-14.6,16.3-10.3,19.2-39.5,25.2
		c-29.5,6.1-12.2,16.9-0.9,19.8c13.7,3.4,45.5,8.3,67-21.8l-0.9,3.4c5.7,4.6,5.3,32.9,6.2,53.2c0.8,20.3,2.2,39.2,6.3,50.3
		c4.1,11.1,9,39.9,47.4,31.6C321.4,451.5,346,441.6,348.2,349.6"/>
	<path class="st1" d="M433.4,292.6c-54.1,11.2-57.8-7.2-57.8-7.2c57.1-84.8,81-192.4,60.4-218.7c-56.2-71.8-153.6-37.9-155.2-37
		l-0.5,0.1c-10.7-2.2-22.7-3.5-36.1-3.8c-24.5-0.4-43.1,6.4-57.1,17.1c0,0-173.6-71.5-165.5,90c1.7,34.4,49.2,259.9,105.9,191.8
		c20.7-24.9,40.7-46,40.7-46c9.9,6.6,21.8,10,34.3,8.8l1-0.8c-0.3,3.1-0.2,6.1,0.4,9.7c-14.6,16.3-10.3,19.2-39.5,25.2
		c-29.5,6.1-12.2,16.9-0.9,19.8c13.7,3.4,45.5,8.3,67-21.8l-0.9,3.4c5.7,4.6,9.7,29.8,9.1,52.7c-0.7,22.9-1.1,38.6,3.4,50.8
		c4.5,12.3,9,39.9,47.4,31.6c32.1-6.9,48.7-24.7,51-54.4c1.6-21.1,5.4-18,5.6-36.9l3-8.9c3.4-28.6,0.5-37.9,20.3-33.6l4.8,0.4
		c14.5,0.7,33.6-2.3,44.7-7.5C442.8,306.3,457.1,287.7,433.4,292.6L433.4,292.6z"/>
	<path class="st2" d="M232.7,309c-1.5,53.3,0.4,106.9,5.6,119.9c5.2,13,16.4,38.4,54.8,30.2c32.1-6.9,43.7-20.2,48.8-49.5
		c3.7-21.6,10.9-81.6,11.8-93.9"/>
	<path class="st2" d="M186.7,42c0,0-173.7-71-165.7,90.5c1.7,34.4,49.2,259.9,105.9,191.8c20.7-24.9,39.4-44.5,39.4-44.5"/>
	<path class="st2" d="M280.6,29c-6,1.9,96.6-37.5,155,37c20.6,26.3-3.3,133.9-60.4,218.7"/>
	<path class="st3" d="M375.2,284.7c0,0,3.7,18.3,57.8,7.2c23.7-4.9,9.4,13.7-14.6,24.9c-19.7,9.2-64,11.5-64.7-1.1
		C351.8,283,377,292.9,375.2,284.7c-1.6-7.4-12.9-14.6-20.3-32.6c-6.5-15.7-89.1-136.4,22.9-118.5c4.1-0.8-29.2-106.5-134-108.2
		C139,23.7,142.4,154.2,142.4,154.2"/>
	<path class="st2" d="M203.4,295.9c-14.6,16.3-10.3,19.2-39.5,25.2c-29.5,6.1-12.2,16.9-0.9,19.8c13.7,3.4,45.5,8.3,67-21.8
		c6.5-9.2,0-23.8-9-27.5C216.7,289.8,210.9,287.6,203.4,295.9L203.4,295.9z"/>
	<path class="st2" d="M202.4,295.6c-1.5-9.6,3.2-21,8.1-34.4c7.4-20,24.6-40.1,10.9-103.6c-10.2-47.4-78.9-9.9-79-3.4
		c0,6.4,3.1,32.5-1.1,63c-5.6,39.7,25.3,73.3,60.8,69.9"/>
	<path class="st4" d="M186.1,153.2c-0.3,2.2,4,8,9.7,8.8c5.6,0.8,10.4-3.8,10.8-6c0.3-2.2-4-4.6-9.7-5.4
		C191.2,149.9,186.4,151,186.1,153.2L186.1,153.2z"/>
	<path class="st5" d="M357.6,148.8c0.3,2.2-4,8-9.7,8.8c-5.6,0.8-10.5-3.8-10.8-6c-0.3-2.2,4-4.6,9.7-5.4S357.3,146.6,357.6,148.8
		L357.6,148.8z"/>
	<path class="st2" d="M377.7,133.6c0.9,17.2-3.7,28.9-4.3,47.2c-0.9,26.6,12.7,57.1-7.7,87.6"/>
	<path class="st6" d="M0.5,65.6"/>
</g>
</svg>
