<?xml version="1.0" encoding="utf-8"?>
<!-- Generator: Adobe Illustrator 24.3.0, SVG Export Plug-In . SVG Version: 6.00 Build 0)  -->
<svg version="1.1" id="User" xmlns="http://www.w3.org/2000/svg" xmlns:xlink="http://www.w3.org/1999/xlink" x="0px" y="0px"
	 viewBox="0 0 512 512" style="enable-background:new 0 0 512 512;" xml:space="preserve">
<style type="text/css">
	.st0{fill:#E2E0E0;}
	.st1{fill:#ACEBE2;}
	.st2{fill:#CECCCC;}
	.st3{fill:#98D7CE;}
	.st4{fill:#84C3BA;}
</style>
<g>
	<path class="st0" d="M465,262c0,47.4-16.8,93.4-47.3,129.6c-7.2,8.6-15.2,16.6-23.7,23.8c-36.2,30.7-82.4,47.7-130,47.7
		s-93.8-16.9-130-47.7c-8.5-7.2-16.5-15.2-23.7-23.8C79.8,355.4,63,309.4,63,262c0-53.7,20.9-104.2,58.9-142.1S210.3,61,264,61
		s104.2,20.9,142.1,58.9S465,208.3,465,262z"/>
	<path class="st1" d="M402.2,375.1c0,11.4-1.4,22.8-4.2,33.7c-0.6,2.5-2.1,4.8-4.1,6.5c-36.2,30.7-82.4,47.7-130,47.7
		s-93.8-16.9-130-47.7c-2-1.7-3.4-4-4.1-6.5c-2.8-11-4.2-22.3-4.2-33.7c0-36.6,14.1-71,39.8-97.1c25.7-26,59.9-40.6,96.4-41.1h0.2
		l1.8,0l1.8,0h0.2c36.5,0.5,70.7,15.1,96.4,41.1C388,304,402.2,338.5,402.2,375.1z"/>
	<path class="st2" d="M465,262c0,47.4-16.8,93.4-47.3,129.6c-7.2,8.6-15.2,16.6-23.7,23.8c-36.2,30.7-82.4,47.7-130,47.7
		c-4.2,0-8.4-0.1-12.6-0.4c43.1-2.7,84.4-19.2,117.4-47.3c8.5-7.2,16.5-15.2,23.7-23.8c30.5-36.2,47.3-82.2,47.3-129.6
		c0-53.7-20.9-104.2-58.9-142.1c-35-35-80.6-55.5-129.6-58.5c4.2-0.3,8.4-0.4,12.6-0.4c53.7,0,104.2,20.9,142.1,58.9
		S465,208.3,465,262L465,262z"/>
	<path class="st3" d="M402.2,375.1c0,11.4-1.4,22.8-4.2,33.7c-0.6,2.5-2.1,4.8-4.1,6.5c-36.2,30.7-82.4,47.7-130,47.7
		c-4.2,0-8.4-0.1-12.6-0.4c43.1-2.7,84.4-19.2,117.4-47.3c2-1.7,3.4-4,4.1-6.5c2.8-11,4.2-22.3,4.2-33.7c0-36.6-14.1-71-39.8-97.1
		c-23.2-23.5-53.3-37.6-85.8-40.6c3.5-0.3,7-0.5,10.6-0.6h0.2l1.8,0l1.8,0h0.2c36.5,0.5,70.7,15.1,96.4,41.1
		C388,304,402.2,338.5,402.2,375.1z"/>
	<circle class="st3" cx="264" cy="186.6" r="75.4"/>
	<path class="st4" d="M339.4,186.6c0,41.6-33.8,75.4-75.4,75.4c-4.3,0-8.5-0.4-12.6-1.1c35.6-6,62.8-37,62.8-74.3
		s-27.2-68.3-62.8-74.3c4.1-0.7,8.3-1.1,12.6-1.1C305.6,111.3,339.4,145.1,339.4,186.6z"/>
</g>
</svg>
